<svg id="Layer_1" data-name="Layer 1" xmlns="http://www.w3.org/2000/svg" viewBox="0 0 214.4 214.4"><defs><style>.cls-1{fill:#0eb9b3;}.cls-2{fill:#f4fff5;}.cls-3{fill:#4b2b74;}</style></defs><title>logo-01</title><rect class="cls-1" width="214.4" height="214.4" rx="25.57"/><path class="cls-2" d="M217.55,157.24c0,2.84-1.21,4.21-4.14,3.94-8-.75-16,.43-24,.26-11.59-.24-21.95,4.65-31.14,11.6-2.11,1.59-1.46,3,.22,4.2,3.89,2.87,4.95,7,5.49,11.36,1.64,13.51,6.44,25.72,15.89,35.9,2.54,2.74,2.69,4.49.11,7.56a52.38,52.38,0,0,1-12.66,11.19,81.86,81.86,0,0,0-7.19,5c-6.39,4.91-6.32,4.9-12-.53-4.64-4.4-8-9.63-11.29-15-1.7-2.77-1.05-4.56,1.37-6.53,1.46-1.2,2.64-2.17,3.55-3H115V87h16.86c10.56-9.1,25.26-.6,28.11,8.5A42,42,0,0,1,161.71,112c-.48,5.43-.16,10.86-.79,16.26-.33,2.76,1.11,3.62,3.51,2.9,11.06-3.33,22.54-3.94,33.9-5.34.81-.1,1.92-.16,2.3-.66,3.68-4.84,8.75-2.14,13.21-2.3,3.11-.1,3.65,2.26,3.67,4.65.05,5,0,9.9,0,14.86S217.47,152.29,217.55,157.24Z" transform="translate(-42.8 -42.8)"/><path class="cls-2" d="M217.55,90.45c.07,3.15-1,4.78-4.44,4.61-3.82-.2-8.08.89-11.36-.47-3.43-1.44-2.76-6.39-4.07-9.73a60.84,60.84,0,0,0-15.77-23.12c-.8-.72-2.17-1.31-1.89-2.55.34-1.55,1.92-1.43,3.15-1.6a197.26,197.26,0,0,1,30.05-1.73c3.1,0,4.29,1.51,4.27,4.41,0,5.11,0,10.22,0,15.33h0C217.52,80.55,217.44,85.5,217.55,90.45Z" transform="translate(-42.8 -42.8)"/><path class="cls-3" d="M160.19,133.05c0-6-.22-10.89.06-15.79a76,76,0,0,0-.59-15.75C158,89.83,148.92,84.43,139.34,84.36c-8.09-.06-15.5,9.09-15.63,19-.21,16.6.32,33.22-.23,49.81-.34,10.54-.27,21,1.35,31.37a62.87,62.87,0,0,0,14.53,31.76c1.57,1.83,3,3.64,3.37,6.22-9.32,7.8-16.76,17.72-27.07,24-3.15-.36-4.45-2.53-5.94-4.33-15.24-18.5-23.26-39.55-23.82-63.71-.58-24.58-.55-49.16-.26-73.73.26-22.24,10.71-39.3,30.15-49.94,19.7-10.78,39.89-9.81,58.65,2.25,11.8,7.58,19.1,19.12,23.48,32.78,3.3,10.31,3.85,20.49,3,31-.27,3.24-1.82,6-4.82,6.34C184.13,128.59,172.09,129.42,160.19,133.05Z" transform="translate(-42.8 -42.8)"/><path class="cls-3" d="M192.65,160.76A74.91,74.91,0,0,1,174,187c-7.53-3.12-11.45-9.28-16.37-14.3C165,164.25,184.69,157.23,192.65,160.76Z" transform="translate(-42.8 -42.8)"/></svg>